<?xml version="1.0" encoding="UTF-8" standalone="no"?>
<!-- Generator: Adobe Illustrator 18.1.1, SVG Export Plug-In . SVG Version: 6.00 Build 0)  -->

<svg
   xmlns:dc="http://purl.org/dc/elements/1.1/"
   xmlns:cc="http://creativecommons.org/ns#"
   xmlns:rdf="http://www.w3.org/1999/02/22-rdf-syntax-ns#"
   xmlns:svg="http://www.w3.org/2000/svg"
   xmlns="http://www.w3.org/2000/svg"
   xmlns:sodipodi="http://sodipodi.sourceforge.net/DTD/sodipodi-0.dtd"
   xmlns:inkscape="http://www.inkscape.org/namespaces/inkscape"
   version="1.1"
   id="Capa_1"
   x="0px"
   y="0px"
   viewBox="0 0 400 400.00001"
   xml:space="preserve"
   sodipodi:docname="object_nomenclature.svg"
   inkscape:version="0.92.5 (2060ec1f9f, 2020-04-08)"
   width="400"
   height="400"><metadata
   id="metadata39"><rdf:RDF><cc:Work
       rdf:about=""><dc:format>image/svg+xml</dc:format><dc:type
         rdf:resource="http://purl.org/dc/dcmitype/StillImage" /><dc:title></dc:title></cc:Work></rdf:RDF></metadata><defs
   id="defs37" /><sodipodi:namedview
   pagecolor="#505050"
   bordercolor="#ffffff"
   borderopacity="1"
   objecttolerance="10"
   gridtolerance="10"
   guidetolerance="10"
   inkscape:pageopacity="0"
   inkscape:pageshadow="2"
   inkscape:window-width="1920"
   inkscape:window-height="1043"
   id="namedview35"
   showgrid="false"
   inkscape:zoom="1.5174241"
   inkscape:cx="188.59543"
   inkscape:cy="147.2969"
   inkscape:window-x="0"
   inkscape:window-y="293"
   inkscape:window-maximized="1"
   inkscape:current-layer="Capa_1"
   fit-margin-top="0"
   fit-margin-left="0"
   fit-margin-right="0"
   fit-margin-bottom="0" />
<path
   d="m 86.984541,112.6369 c -8.736,0 -17.472997,3.237 -24.223997,9.711 -11.063,10.60799 -13.66,26.90399 -7.436,40.16599 l -48.2480004,0.006 c -0.056,-0.003 -0.112,-0.005 -0.168,-0.006 -2.759,0.042 -4.963,2.311 -4.924,5.07 v 160 c 0,2.76101 2.239,5.00001 5,5.00001 H 166.98454 c 2.761,0.039 5.032,-2.168 5.07,-4.93001 0,-0.024 0.001,-0.048 0.001,-0.073 v -0.072 l -0.01,-57.422 h -0.02 c 0.01,-2.762 -2.221,-5.009 -4.982,-5.019 -1.234,-0.005 -2.426,0.447 -3.347,1.269 -10.09,8.894 -25.264,8.258 -34.574,-1.451 -9.309,-9.709 -9.309,-24.897 0,-34.606 9.31,-9.709 24.483,-10.347 34.574,-1.453 2.06,1.84 5.221,1.662 7.061,-0.398 0.823,-0.921 1.276,-2.114 1.271,-3.349 h 0.03 v -57.495 c 0.04,-2.818 -2.255,-5.111 -5.072,-5.07 h -48.342 c 6.225,-13.262 3.628,-29.558 -7.435,-40.16599 -6.751,-6.474 -15.486999,-9.712 -24.222999,-9.712 z m 0,9.947 c 6.225,0 12.449,2.328 17.302999,6.98199 9.709,9.309 10.345,24.483 1.451,34.574 -1.859,2.042 -1.712,5.205 0.33,7.064 0.933,0.85 2.154,1.315 3.416,1.303 v 0.006 h 52.573 v 43.404 c -13.26,-6.216 -29.55,-3.618 -40.155,7.442 -6.473,6.751 -9.709,15.488 -9.709,24.225 0,8.736 3.236,17.473 9.709,24.225 10.603,11.057 26.888,13.655 40.147,7.443 l 0.01,43.332 H 11.986544 v -150.064 l 52.493,-0.006 v -0.047 c 2.762,0.01 5.008,-2.221 5.018,-4.983 0.004,-1.232 -0.447,-2.423 -1.266,-3.343 -8.894,-10.091 -8.256,-25.264 1.453,-34.574 4.854,-4.65499 11.077997,-6.98199 17.301997,-6.98199 z"
   id="path2"
   inkscape:connector-curvature="0"
   style="color-interpolation:sRGB;fill:#00384e;fill-opacity:1;color-rendering:auto;image-rendering:auto;shape-rendering:auto" />
<g
   id="g4"
   transform="translate(57.079229,63.120556)">
</g>
<g
   id="g6"
   transform="translate(57.079229,63.120556)">
</g>
<g
   id="g8"
   transform="translate(57.079229,63.120556)">
</g>
<g
   id="g10"
   transform="translate(57.079229,63.120556)">
</g>
<g
   id="g12"
   transform="translate(57.079229,63.120556)">
</g>
<g
   id="g14"
   transform="translate(57.079229,63.120556)">
</g>
<g
   id="g16"
   transform="translate(57.079229,63.120556)">
</g>
<g
   id="g18"
   transform="translate(57.079229,63.120556)">
</g>
<g
   id="g20"
   transform="translate(57.079229,63.120556)">
</g>
<g
   id="g22"
   transform="translate(57.079229,63.120556)">
</g>
<g
   id="g24"
   transform="translate(57.079229,63.120556)">
</g>
<g
   id="g26"
   transform="translate(57.079229,63.120556)">
</g>
<g
   id="g28"
   transform="translate(57.079229,63.120556)">
</g>
<g
   id="g30"
   transform="translate(57.079229,63.120556)">
</g>
<g
   id="g32"
   transform="translate(57.079229,63.120556)">
</g>
<path
   id="path863"
   d="m 177.69133,313.02244 c 0,8.736 3.237,17.47301 9.711,24.22401 10.608,11.063 26.904,13.66 40.166,7.436 l 0.006,48.248 c -0.003,0.056 -0.005,0.112 -0.006,0.168 0.042,2.759 2.311,4.963 5.07,4.924 h 160 c 2.761,0 5,-2.239 5,-5 V 233.02244 c 0.039,-2.761 -2.168,-5.032 -4.93,-5.07 -0.024,0 -0.048,-0.001 -0.073,-0.001 h -0.072 l -57.422,0.01 v 0.02 c -2.762,-0.01 -5.009,2.221 -5.019,4.982 -0.005,1.234 0.447,2.426 1.269,3.347 8.894,10.09 8.258,25.264 -1.451,34.574 -9.709,9.309 -24.897,9.309 -34.606,0 -9.709,-9.31 -10.347,-24.483 -1.453,-34.574 1.84,-2.06 1.662,-5.221 -0.398,-7.061 -0.921,-0.823 -2.114,-1.276 -3.349,-1.271 v -0.03 h -57.495 c -2.818,-0.04 -5.111,2.255 -5.07,5.072 v 48.342 c -13.262,-6.225 -29.558,-3.628 -40.166,7.435 -6.474,6.751 -9.712,15.487 -9.712,24.223 z m 9.947,0 c 0,-6.225 2.328,-12.449 6.982,-17.303 9.309,-9.709 24.483,-10.345 34.574,-1.451 2.042,1.859 5.205,1.712 7.064,-0.33 0.85,-0.933 1.315,-2.154 1.303,-3.416 h 0.006 v -52.573 h 43.404 c -6.216,13.26 -3.618,29.55 7.442,40.155 6.751,6.473 15.488,9.709 24.225,9.709 8.736,0 17.473,-3.236 24.225,-9.709 11.057,-10.603 13.655,-26.888 7.443,-40.147 l 43.332,-0.01 v 150.07301 h -150.064 l -0.006,-52.493 h -0.047 c 0.01,-2.762 -2.221,-5.008 -4.983,-5.018 -1.232,-0.004 -2.423,0.447 -3.343,1.266 -10.091,8.894 -25.264,8.256 -34.574,-1.453 -4.655,-4.85401 -6.982,-11.07801 -6.982,-17.30201 z"
   inkscape:connector-curvature="0"
   style="color-interpolation:sRGB;fill:#cb4f24;fill-opacity:1;color-rendering:auto;image-rendering:auto;shape-rendering:auto" /><path
   style="color-interpolation:sRGB;fill:#00384e;fill-opacity:1;color-rendering:auto;image-rendering:auto;shape-rendering:auto"
   inkscape:connector-curvature="0"
   id="path865"
   d="m 247.11954,222.38189 c 8.736,0 17.473,-3.237 24.224,-9.711 11.063,-10.608 13.66,-26.904 7.436,-40.166 l 48.248,-0.006 c 0.056,0.003 0.112,0.005 0.168,0.006 2.759,-0.042 4.963,-2.311 4.924,-5.07 V 7.4348819 c 0,-2.761 -2.239,-5 -5,-5 h -160 c -2.761,-0.039 -5.032,2.168 -5.07,4.93 0,0.024 -0.001,0.048 -0.001,0.073 v 0.072 l 0.01,57.4219991 h 0.02 c -0.01,2.762 2.221,5.009 4.982,5.019 1.234,0.005 2.426,-0.447 3.347,-1.269 10.09,-8.894 25.264,-8.258 34.574,1.451 9.309,9.709 9.309,24.897 0,34.606019 -9.31,9.709 -24.483,10.347 -34.574,1.453 -2.06,-1.84 -5.221,-1.662 -7.061,0.398 -0.823,0.921 -1.276,2.114 -1.271,3.349 h -0.03 v 57.49499 c -0.04,2.818 2.255,5.111 5.072,5.07 h 48.342 c -6.225,13.262 -3.628,29.558 7.435,40.166 6.751,6.474 15.487,9.712 24.223,9.712 z m 0,-9.947 c -6.225,0 -12.449,-2.328 -17.303,-6.982 -9.709,-9.309 -10.345,-24.483 -1.451,-34.574 1.859,-2.042 1.712,-5.205 -0.33,-7.064 -0.933,-0.85 -2.154,-1.315 -3.416,-1.303 v -0.006 h -52.573 V 119.1019 c 13.26,6.216 29.55,3.618 40.155,-7.442 6.473,-6.751 9.709,-15.488019 9.709,-24.225019 0,-8.736 -3.236,-17.473 -9.709,-24.225 -10.603,-11.057 -26.888,-13.655 -40.147,-7.443 l -0.01,-43.332 h 150.073 V 162.49889 l -52.493,0.006 v 0.047 c -2.762,-0.01 -5.008,2.221 -5.018,4.983 -0.004,1.232 0.447,2.423 1.266,3.343 8.894,10.091 8.256,25.264 -1.453,34.574 -4.854,4.655 -11.078,6.982 -17.302,6.982 z" /><path
   style="color-interpolation:sRGB;fill:#00384e;fill-opacity:1;color-rendering:auto;image-rendering:auto;shape-rendering:auto"
   inkscape:connector-curvature="0"
   d="m 221.92454,87.441881 c 0,-8.736 -3.237,-17.473 -9.711,-24.224 -10.608,-11.063 -26.904,-13.66 -40.166,-7.436 l -0.006,-48.2479991 c 0.003,-0.056 0.005,-0.112 0.006,-0.168 -0.042,-2.759 -2.311,-4.963 -5.07,-4.924 H 6.9775436 c -2.761,0 -5,2.239 -5,5 V 167.44189 c -0.039,2.761 2.168,5.032 4.93,5.07 0.024,0 0.048,0.001 0.073,0.001 h 0.072 l 57.4220004,-0.01 v -0.02 c 2.762,0.01 5.009,-2.221 5.019,-4.982 0.005,-1.234 -0.447,-2.426 -1.269,-3.347 -8.894,-10.09 -8.258,-25.264 1.451,-34.574 9.708997,-9.30899 24.896997,-9.30899 34.605996,0 9.709,9.31 10.347,24.483 1.453,34.574 -1.84,2.06 -1.662,5.221 0.398,7.061 0.921,0.823 2.114,1.276 3.349,1.271 v 0.03 h 57.495 c 2.818,0.04 5.111,-2.255 5.07,-5.072 V 119.1019 c 13.262,6.225 29.558,3.628 40.166,-7.435 6.474,-6.751 9.712,-15.487019 9.712,-24.223019 z m -9.947,0 c 0,6.225 -2.328,12.449004 -6.982,17.303019 -9.309,9.709 -24.483,10.345 -34.574,1.451 -2.042,-1.859 -5.205,-1.712 -7.064,0.33 -0.85,0.933 -1.315,2.154 -1.303,3.416 h -0.006 v 52.57299 h -43.404 c 6.216,-13.26 3.618,-29.55 -7.442,-40.15499 -6.751,-6.473 -15.487999,-9.709 -24.224999,-9.709 -8.736,0 -17.472997,3.236 -24.224997,9.709 -11.057,10.60299 -13.655,26.88799 -7.443,40.14699 l -43.332,0.01 V 12.443881 H 162.04154 l 0.006,52.493 h 0.047 c -0.01,2.762 2.221,5.008 4.983,5.018 1.232,0.004 2.423,-0.447 3.343,-1.266 10.091,-8.894 25.264,-8.256 34.574,1.453 4.655,4.854 6.982,11.078 6.982,17.302 z"
   id="path867" /></svg>